<svg xmlns="http://www.w3.org/2000/svg" xmlns:v="https://svgstorm.com"
viewBox = "0 0 497 542"
width="497"
height="542">
<g fill="None" fill-opacity="0.0" stroke="#CBF1FB" stroke-opacity="1.00" stroke-width="0.3"><path d="
M 0.00 127.00 
C 64.08 55.72 148.67 11.75 244.00 9.00 C 339.33 6.25 430.85 46.72 497.00 117.00
L 497.00 0.00
L 0.00 0.00
L 0.00 127.00 Z"/>
</g>
<g fill="None" fill-opacity="0.0" stroke="#F91819" stroke-opacity="1.00" stroke-width="0.3"><path d="
M 0.00 127.00 
L 0.00 198.00
C 65.07 129.14 147.57 82.98 243.02 80.02 C 338.48 77.07 430.52 119.83 497.00 188.00
L 497.00 117.00
C 430.85 46.72 339.33 6.25 244.00 9.00 C 148.67 11.75 64.08 55.72 0.00 127.00
M 236.00 45.00 
C 241.10 48.65 237.48 55.28 240.00 60.00
C 228.74 65.69 239.44 44.28 228.00 48.00
C 230.92 60.77 222.06 63.05 223.00 52.00 C 223.94 40.95 219.43 32.33 230.00 31.00 C 240.57 29.67 241.83 40.31 236.00 45.00
M 276.00 31.00 
C 276.00 41.00 276.00 51.00 276.00 61.00
C 269.11 60.89 261.34 61.33 261.02 51.98 C 260.71 42.62 263.34 34.57 272.00 41.00
C 272.68 37.37 269.64 29.56 276.00 31.00
M 248.00 50.00 
C 247.89 53.05 247.46 58.74 252.00 58.00
C 253.10 55.75 253.31 52.04 257.00 53.00
C 259.79 63.77 244.55 62.54 243.67 55.33 C 242.80 48.11 242.17 36.85 252.01 38.01 C 261.85 39.16 258.04 55.55 248.00 50.00 Z"/>
</g>
<g fill="None" fill-opacity="0.0" stroke="#CBF1FB" stroke-opacity="1.00" stroke-width="0.3"><path d="
M 236.00 45.00 
C 241.83 40.31 240.57 29.67 230.00 31.00 C 219.43 32.33 223.94 40.95 223.00 52.00 C 222.06 63.05 230.92 60.77 228.00 48.00
C 239.44 44.28 228.74 65.69 240.00 60.00
C 237.48 55.28 241.10 48.65 236.00 45.00
M 228.00 44.00 
C 228.00 41.00 228.00 38.00 228.00 35.00
C 236.20 31.78 236.24 47.21 228.00 44.00 Z"/>
</g>
<g fill="None" fill-opacity="0.0" stroke="#CBF1FB" stroke-opacity="1.00" stroke-width="0.3"><path d="
M 276.00 31.00 
C 269.64 29.56 272.68 37.37 272.00 41.00
C 263.34 34.57 260.71 42.62 261.02 51.98 C 261.34 61.33 269.11 60.89 276.00 61.00
C 276.00 51.00 276.00 41.00 276.00 31.00
M 270.00 42.00 
C 273.90 43.34 272.82 58.67 268.25 57.59 C 263.69 56.51 264.84 40.23 270.00 42.00 Z"/>
</g>
<g fill="None" fill-opacity="0.0" stroke="#F91819" stroke-opacity="1.00" stroke-width="0.3"><path d="
M 228.00 44.00 
C 236.24 47.21 236.20 31.78 228.00 35.00
C 228.00 38.00 228.00 41.00 228.00 44.00 Z"/>
</g>
<g fill="None" fill-opacity="0.0" stroke="#CBF1FB" stroke-opacity="1.00" stroke-width="0.3"><path d="
M 248.00 50.00 
C 258.04 55.55 261.85 39.16 252.01 38.01 C 242.17 36.85 242.80 48.11 243.67 55.33 C 244.55 62.54 259.79 63.77 257.00 53.00
C 253.31 52.04 253.10 55.75 252.00 58.00
C 247.46 58.74 247.89 53.05 248.00 50.00
M 252.00 42.00 
C 255.11 43.58 251.99 48.81 249.00 47.00 C 246.00 45.18 249.35 40.66 252.00 42.00 Z"/>
</g>
<g fill="None" fill-opacity="0.0" stroke="#F91819" stroke-opacity="1.00" stroke-width="0.3"><path d="
M 252.00 42.00 
C 249.35 40.66 246.00 45.18 249.00 47.00 C 251.99 48.81 255.11 43.58 252.00 42.00 Z"/>
</g>
<g fill="None" fill-opacity="0.0" stroke="#F91819" stroke-opacity="1.00" stroke-width="0.3"><path d="
M 270.00 42.00 
C 264.84 40.23 263.69 56.51 268.25 57.59 C 272.82 58.67 273.90 43.34 270.00 42.00 Z"/>
</g>
<g fill="None" fill-opacity="0.0" stroke="#F5A11B" stroke-opacity="1.00" stroke-width="0.3"><path d="
M 0.00 198.00 
L 0.00 268.00
C 65.49 198.23 147.44 153.03 243.00 150.00 C 338.56 146.97 430.51 189.29 497.00 258.00
L 497.00 188.00
C 430.52 119.83 338.48 77.07 243.02 80.02 C 147.57 82.98 65.07 129.14 0.00 198.00
M 209.00 102.00 
C 220.75 106.07 214.22 138.78 201.33 132.67 C 188.44 126.56 194.54 96.99 209.00 102.00
M 246.00 133.00 
C 241.91 129.61 235.10 135.94 232.10 130.90 C 229.10 125.85 231.68 120.62 237.70 118.70 C 243.71 116.77 237.24 109.09 235.00 118.00
C 225.86 115.60 237.25 105.51 243.00 110.00 C 248.75 114.49 244.88 126.30 246.00 133.00
M 255.00 133.00 
C 247.25 133.78 251.51 125.92 250.00 121.00 C 248.49 116.08 251.21 108.60 254.89 111.11 C 258.57 113.62 262.70 105.34 264.75 112.25 C 266.80 119.16 264.51 121.43 265.00 129.00 C 265.49 136.57 257.00 129.71 260.00 125.00 C 263.00 120.29 258.00 111.03 256.08 116.09 C 254.17 121.14 257.65 128.09 255.00 133.00
M 282.00 109.00 
C 286.71 114.47 282.30 124.74 284.00 131.00 C 285.70 137.26 278.05 146.54 271.31 139.69 C 264.56 132.85 282.90 140.21 279.00 131.00
C 267.90 134.49 269.53 127.59 269.00 118.00 C 268.47 108.41 276.70 111.94 282.00 109.00
M 293.00 122.00 
C 292.76 124.85 292.94 129.80 297.00 129.00
C 298.44 118.32 308.40 129.72 298.77 132.77 C 289.14 135.82 288.00 126.92 288.00 120.00 C 288.00 113.08 292.12 106.09 299.68 110.32 C 307.24 114.55 301.72 126.52 293.00 122.00
M 223.00 110.00 
C 222.57 115.92 225.47 107.70 229.00 110.00
C 230.15 114.12 227.58 116.30 224.00 117.00
C 224.04 122.44 224.29 127.88 223.00 133.00
C 215.25 132.95 214.86 109.78 223.00 110.00 Z"/>
</g>
<g fill="None" fill-opacity="0.0" stroke="#AF5114" stroke-opacity="1.00" stroke-width="0.3"><path d="
M 209.00 102.00 
C 194.54 96.99 188.44 126.56 201.33 132.67 C 214.22 138.78 220.75 106.07 209.00 102.00
M 206.00 106.00 
C 209.34 107.11 207.55 115.44 208.00 118.00 C 208.45 120.56 208.75 129.75 204.30 128.64 C 199.85 127.54 202.74 119.52 202.00 117.00 C 201.26 114.48 201.47 104.49 206.00 106.00 Z"/>
</g>
<g fill="None" fill-opacity="0.0" stroke="#F5A11B" stroke-opacity="1.00" stroke-width="0.3"><path d="
M 206.00 106.00 
C 201.47 104.49 201.26 114.48 202.00 117.00 C 202.74 119.52 199.85 127.54 204.30 128.64 C 208.75 129.75 208.45 120.56 208.00 118.00 C 207.55 115.44 209.34 107.11 206.00 106.00 Z"/>
</g>
<g fill="None" fill-opacity="0.0" stroke="#AF5114" stroke-opacity="1.00" stroke-width="0.3"><path d="
M 246.00 133.00 
C 244.88 126.30 248.75 114.49 243.00 110.00 C 237.25 105.51 225.86 115.60 235.00 118.00
C 237.24 109.09 243.71 116.77 237.70 118.70 C 231.68 120.62 229.10 125.85 232.10 130.90 C 235.10 135.94 241.91 129.61 246.00 133.00
M 241.00 121.00 
C 243.31 133.66 230.37 125.65 241.00 121.00 Z"/>
</g>
<g fill="None" fill-opacity="0.0" stroke="#AF5114" stroke-opacity="1.00" stroke-width="0.3"><path d="
M 255.00 133.00 
C 257.65 128.09 254.17 121.14 256.08 116.09 C 258.00 111.03 263.00 120.29 260.00 125.00 C 257.00 129.71 265.49 136.57 265.00 129.00 C 264.51 121.43 266.80 119.16 264.75 112.25 C 262.70 105.34 258.57 113.62 254.89 111.11 C 251.21 108.60 248.49 116.08 250.00 121.00 C 251.51 125.92 247.25 133.78 255.00 133.00 Z"/>
</g>
<g fill="None" fill-opacity="0.0" stroke="#AF5114" stroke-opacity="1.00" stroke-width="0.3"><path d="
M 282.00 109.00 
C 276.70 111.94 268.47 108.41 269.00 118.00 C 269.53 127.59 267.90 134.49 279.00 131.00
C 282.90 140.21 264.56 132.85 271.31 139.69 C 278.05 146.54 285.70 137.26 284.00 131.00 C 282.30 124.74 286.71 114.47 282.00 109.00
M 278.00 114.00 
C 281.02 115.80 279.25 129.38 275.32 127.66 C 271.39 125.94 273.73 111.46 278.00 114.00 Z"/>
</g>
<g fill="None" fill-opacity="0.0" stroke="#AF5114" stroke-opacity="1.00" stroke-width="0.3"><path d="
M 293.00 122.00 
C 301.72 126.52 307.24 114.55 299.68 110.32 C 292.12 106.09 288.00 113.08 288.00 120.00 C 288.00 126.92 289.14 135.82 298.77 132.77 C 308.40 129.72 298.44 118.32 297.00 129.00
C 292.94 129.80 292.76 124.85 293.00 122.00
M 297.00 114.00 
C 299.99 115.26 296.61 119.78 294.00 118.00 C 291.38 116.21 294.63 113.00 297.00 114.00 Z"/>
</g>
<g fill="None" fill-opacity="0.0" stroke="#AF5114" stroke-opacity="1.00" stroke-width="0.3"><path d="
M 223.00 110.00 
C 214.86 109.78 215.25 132.95 223.00 133.00
C 224.29 127.88 224.04 122.44 224.00 117.00
C 227.58 116.30 230.15 114.12 229.00 110.00
C 225.47 107.70 222.57 115.92 223.00 110.00 Z"/>
</g>
<g fill="None" fill-opacity="0.0" stroke="#F5A11B" stroke-opacity="1.00" stroke-width="0.3"><path d="
M 278.00 114.00 
C 273.73 111.46 271.39 125.94 275.32 127.66 C 279.25 129.38 281.02 115.80 278.00 114.00 Z"/>
</g>
<g fill="None" fill-opacity="0.0" stroke="#F5A11B" stroke-opacity="1.00" stroke-width="0.3"><path d="
M 297.00 114.00 
C 294.63 113.00 291.38 116.21 294.00 118.00 C 296.61 119.78 299.99 115.26 297.00 114.00 Z"/>
</g>
<g fill="None" fill-opacity="0.0" stroke="#F5A11B" stroke-opacity="1.00" stroke-width="0.3"><path d="
M 241.00 121.00 
C 230.37 125.65 243.31 133.66 241.00 121.00 Z"/>
</g>
<g fill="None" fill-opacity="0.0" stroke="#F0EF03" stroke-opacity="1.00" stroke-width="0.3"><path d="
M 0.00 268.00 
L 0.00 349.00
C 64.61 278.49 147.32 233.96 243.00 231.00 C 338.68 228.04 430.88 269.24 497.00 339.00
L 497.00 258.00
C 430.51 189.29 338.56 146.97 243.00 150.00 C 147.44 153.03 65.49 198.23 0.00 268.00
M 209.00 188.00 
C 209.44 185.50 213.10 174.04 216.68 176.34 C 220.26 178.64 214.02 187.91 212.69 190.69 C 211.37 193.48 211.72 207.85 207.97 206.97 C 204.22 206.09 206.03 193.83 204.23 190.77 C 202.42 187.71 197.27 179.49 200.76 176.75 C 204.24 174.01 207.83 185.47 209.00 188.00
M 240.00 176.00 
C 243.18 177.70 240.25 189.93 241.00 193.00 C 241.75 196.07 242.14 208.33 237.77 206.21 C 233.40 204.10 237.36 192.89 236.00 190.00 C 234.64 187.11 236.34 174.04 240.00 176.00
M 250.00 176.00 
C 253.18 177.70 250.25 189.93 251.00 193.00 C 251.75 196.07 252.14 208.33 247.77 206.21 C 243.40 204.10 247.36 192.89 246.00 190.00 C 244.64 187.11 246.34 174.04 250.00 176.00
M 223.00 196.00 
C 222.76 198.85 222.94 203.80 227.00 203.00
C 237.06 190.01 229.80 211.57 222.33 206.67 C 214.86 201.77 214.24 187.79 223.03 184.03 C 231.82 180.26 239.44 201.38 223.00 196.00
M 267.00 184.00 
C 276.45 187.71 270.54 211.31 260.33 206.67 C 250.12 202.03 254.93 179.26 267.00 184.00
M 280.00 198.00 
C 285.23 196.13 279.40 182.67 288.00 184.00
C 288.54 189.10 289.49 194.14 291.00 199.00
C 294.14 194.91 289.89 183.24 298.00 184.00
C 295.74 191.32 298.61 197.50 294.67 204.67 C 290.73 211.84 285.53 197.82 285.00 195.00
C 288.15 200.49 279.76 211.41 277.08 203.92 C 274.41 196.43 274.99 191.63 274.00 184.00
C 281.60 182.93 278.79 193.30 280.00 198.00 Z"/>
</g>
<g fill="None" fill-opacity="0.0" stroke="#F5A11B" stroke-opacity="1.00" stroke-width="0.3"><path d="
M 209.00 188.00 
C 207.83 185.47 204.24 174.01 200.76 176.75 C 197.27 179.49 202.42 187.71 204.23 190.77 C 206.03 193.83 204.22 206.09 207.97 206.97 C 211.72 207.85 211.37 193.48 212.69 190.69 C 214.02 187.91 220.26 178.64 216.68 176.34 C 213.10 174.04 209.44 185.50 209.00 188.00 Z"/>
</g>
<g fill="None" fill-opacity="0.0" stroke="#F5A11B" stroke-opacity="1.00" stroke-width="0.3"><path d="
M 240.00 176.00 
C 236.34 174.04 234.64 187.11 236.00 190.00 C 237.36 192.89 233.40 204.10 237.77 206.21 C 242.14 208.33 241.75 196.07 241.00 193.00 C 240.25 189.93 243.18 177.70 240.00 176.00 Z"/>
</g>
<g fill="None" fill-opacity="0.0" stroke="#F5A11B" stroke-opacity="1.00" stroke-width="0.3"><path d="
M 250.00 176.00 
C 246.34 174.04 244.64 187.11 246.00 190.00 C 247.36 192.89 243.40 204.10 247.77 206.21 C 252.14 208.33 251.75 196.07 251.00 193.00 C 250.25 189.93 253.18 177.70 250.00 176.00 Z"/>
</g>
<g fill="None" fill-opacity="0.0" stroke="#F5A11B" stroke-opacity="1.00" stroke-width="0.3"><path d="
M 223.00 196.00 
C 239.44 201.38 231.82 180.26 223.03 184.03 C 214.24 187.79 214.86 201.77 222.33 206.67 C 229.80 211.57 237.06 190.01 227.00 203.00
C 222.94 203.80 222.76 198.85 223.00 196.00
M 226.00 187.00 
C 227.83 187.27 229.48 192.45 225.75 192.19 C 222.03 191.93 223.04 186.57 226.00 187.00 Z"/>
</g>
<g fill="None" fill-opacity="0.0" stroke="#F5A11B" stroke-opacity="1.00" stroke-width="0.3"><path d="
M 267.00 184.00 
C 254.93 179.26 250.12 202.03 260.33 206.67 C 270.54 211.31 276.45 187.71 267.00 184.00
M 264.00 187.00 
C 266.89 189.43 267.20 203.51 262.97 202.97 C 258.73 202.43 259.94 186.99 264.00 187.00 Z"/>
</g>
<g fill="None" fill-opacity="0.0" stroke="#F5A11B" stroke-opacity="1.00" stroke-width="0.3"><path d="
M 280.00 198.00 
C 278.79 193.30 281.60 182.93 274.00 184.00
C 274.99 191.63 274.41 196.43 277.08 203.92 C 279.76 211.41 288.15 200.49 285.00 195.00
C 285.53 197.82 290.73 211.84 294.67 204.67 C 298.61 197.50 295.74 191.32 298.00 184.00
C 289.89 183.24 294.14 194.91 291.00 199.00
C 289.49 194.14 288.54 189.10 288.00 184.00
C 279.40 182.67 285.23 196.13 280.00 198.00 Z"/>
</g>
<g fill="None" fill-opacity="0.0" stroke="#F0EF03" stroke-opacity="1.00" stroke-width="0.3"><path d="
M 226.00 187.00 
C 223.04 186.57 222.03 191.93 225.75 192.19 C 229.48 192.45 227.83 187.27 226.00 187.00 Z"/>
</g>
<g fill="None" fill-opacity="0.0" stroke="#F0EF03" stroke-opacity="1.00" stroke-width="0.3"><path d="
M 264.00 187.00 
C 259.94 186.99 258.73 202.43 262.97 202.97 C 267.20 203.51 266.89 189.43 264.00 187.00 Z"/>
</g>
<g fill="None" fill-opacity="0.0" stroke="#67CC40" stroke-opacity="1.00" stroke-width="0.3"><path d="
M 0.00 349.00 
L 0.00 422.00
C 64.68 351.67 147.35 307.00 243.00 304.00 C 338.65 301.00 430.83 342.39 497.00 412.00
L 497.00 339.00
C 430.88 269.24 338.68 228.04 243.00 231.00 C 147.32 233.96 64.61 278.49 0.00 349.00
M 219.00 261.00 
C 215.59 250.01 212.37 258.70 212.00 267.00 C 211.63 275.30 218.38 283.12 219.00 270.00
C 210.12 271.33 217.08 261.59 222.00 265.00 C 226.92 268.41 222.46 276.95 224.00 282.00
C 219.21 279.04 208.56 284.73 207.03 274.97 C 205.50 265.22 204.10 257.85 211.70 251.70 C 219.30 245.54 230.61 262.63 219.00 261.00
M 233.00 259.00 
C 232.57 264.92 235.47 256.70 239.00 259.00
C 239.91 262.51 238.11 266.20 234.00 265.00
C 234.90 269.16 231.35 286.28 228.23 279.77 C 225.12 273.25 226.90 259.53 233.00 259.00
M 246.00 271.00 
C 245.76 273.85 245.94 278.80 250.00 278.00
C 260.06 265.01 252.80 286.57 245.33 281.67 C 237.86 276.77 237.24 262.79 246.03 259.03 C 254.82 255.26 262.44 276.38 246.00 271.00
M 264.00 271.00 
C 264.07 273.52 263.07 278.25 267.00 278.00
C 276.43 265.08 271.11 286.25 263.33 281.67 C 255.55 277.09 255.32 263.53 263.08 259.08 C 270.83 254.62 280.39 275.60 264.00 271.00
M 283.00 263.00 
C 281.52 268.71 282.32 271.58 282.00 278.00 C 281.68 284.42 275.63 280.67 277.00 275.00 C 278.37 269.33 275.44 264.21 278.00 259.00
C 281.98 259.92 291.41 258.02 291.97 264.03 C 292.54 270.03 293.34 283.41 287.78 281.22 C 282.21 279.03 292.89 261.71 283.00 263.00 Z"/>
</g>
<g fill="None" fill-opacity="0.0" stroke="#1C5F06" stroke-opacity="1.00" stroke-width="0.3"><path d="
M 219.00 261.00 
C 230.61 262.63 219.30 245.54 211.70 251.70 C 204.10 257.85 205.50 265.22 207.03 274.97 C 208.56 284.73 219.21 279.04 224.00 282.00
C 222.46 276.95 226.92 268.41 222.00 265.00 C 217.08 261.59 210.12 271.33 219.00 270.00
C 218.38 283.12 211.63 275.30 212.00 267.00 C 212.37 258.70 215.59 250.01 219.00 261.00 Z"/>
</g>
<g fill="None" fill-opacity="0.0" stroke="#1C5F06" stroke-opacity="1.00" stroke-width="0.3"><path d="
M 233.00 259.00 
C 226.90 259.53 225.12 273.25 228.23 279.77 C 231.35 286.28 234.90 269.16 234.00 265.00
C 238.11 266.20 239.91 262.51 239.00 259.00
C 235.47 256.70 232.57 264.92 233.00 259.00 Z"/>
</g>
<g fill="None" fill-opacity="0.0" stroke="#1C5F06" stroke-opacity="1.00" stroke-width="0.3"><path d="
M 246.00 271.00 
C 262.44 276.38 254.82 255.26 246.03 259.03 C 237.24 262.79 237.86 276.77 245.33 281.67 C 252.80 286.57 260.06 265.01 250.00 278.00
C 245.94 278.80 245.76 273.85 246.00 271.00
M 251.00 267.00 
C 240.76 269.05 251.08 256.87 251.00 267.00 Z"/>
</g>
<g fill="None" fill-opacity="0.0" stroke="#1C5F06" stroke-opacity="1.00" stroke-width="0.3"><path d="
M 264.00 271.00 
C 280.39 275.60 270.83 254.62 263.08 259.08 C 255.32 263.53 255.55 277.09 263.33 281.67 C 271.11 286.25 276.43 265.08 267.00 278.00
C 263.07 278.25 264.07 273.52 264.00 271.00
M 268.00 267.00 
C 258.73 268.06 269.44 257.02 268.00 267.00 Z"/>
</g>
<g fill="None" fill-opacity="0.0" stroke="#1C5F06" stroke-opacity="1.00" stroke-width="0.3"><path d="
M 283.00 263.00 
C 292.89 261.71 282.21 279.03 287.78 281.22 C 293.34 283.41 292.54 270.03 291.97 264.03 C 291.41 258.02 281.98 259.92 278.00 259.00
C 275.44 264.21 278.37 269.33 277.00 275.00 C 275.63 280.67 281.68 284.42 282.00 278.00 C 282.32 271.58 281.52 268.71 283.00 263.00 Z"/>
</g>
<g fill="None" fill-opacity="0.0" stroke="#67CC40" stroke-opacity="1.00" stroke-width="0.3"><path d="
M 251.00 267.00 
C 251.08 256.87 240.76 269.05 251.00 267.00 Z"/>
</g>
<g fill="None" fill-opacity="0.0" stroke="#67CC40" stroke-opacity="1.00" stroke-width="0.3"><path d="
M 268.00 267.00 
C 269.44 257.02 258.73 268.06 268.00 267.00 Z"/>
</g>
<g fill="None" fill-opacity="0.0" stroke="#00A8EB" stroke-opacity="1.00" stroke-width="0.3"><path d="
M 0.00 422.00 
L 0.00 542.00
L 1.00 542.00
C 0.45 524.54 -2.28 500.69 11.25 489.25 C 24.77 477.80 31.47 468.44 44.75 458.75 C 58.03 449.06 67.33 440.60 81.25 432.25 C 95.16 423.89 108.04 416.92 123.23 410.23 C 138.42 403.54 152.98 398.32 169.68 393.68 C 186.37 389.04 205.78 385.45 224.00 384.00 C 242.22 382.55 267.89 382.29 286.00 384.00 C 304.11 385.71 322.06 389.91 338.68 394.32 C 355.29 398.73 370.65 404.70 385.69 411.31 C 400.74 417.91 412.86 425.49 426.25 433.75 C 439.63 442.02 451.67 450.50 463.70 460.30 C 475.72 470.11 485.62 480.46 497.00 491.00
L 497.00 412.00
C 430.83 342.39 338.65 301.00 243.00 304.00 C 147.35 307.00 64.68 351.67 0.00 422.00
M 242.00 328.00 
C 245.79 328.70 243.84 340.83 244.00 344.00 C 244.16 347.17 245.60 359.90 241.25 359.59 C 236.91 359.29 239.28 346.89 239.00 344.00 C 238.72 341.11 237.45 327.16 242.00 328.00
M 232.00 342.00 
C 234.49 346.92 239.77 356.15 229.92 358.92 C 220.07 361.70 215.26 355.87 217.00 346.00 C 218.74 336.13 214.20 329.46 225.00 329.00 C 235.80 328.54 236.15 335.79 232.00 342.00
M 260.00 360.00 
C 259.06 358.35 247.09 360.32 249.03 354.97 C 250.96 349.63 244.58 338.94 250.26 336.26 C 255.93 333.58 252.03 348.16 254.00 352.00 C 255.97 355.84 259.74 350.24 258.00 342.00 C 256.26 333.76 266.62 336.61 264.00 344.00 C 261.38 351.39 268.08 356.98 260.00 360.00
M 273.00 349.00 
C 272.84 351.31 272.55 355.34 276.00 355.00
C 278.20 344.66 287.00 356.12 277.97 358.97 C 268.95 361.82 267.40 354.36 267.00 347.00 C 266.60 339.64 272.48 332.26 279.74 337.26 C 287.01 342.25 280.81 352.13 273.00 349.00 Z"/>
</g>
<g fill="None" fill-opacity="0.0" stroke="#006EB7" stroke-opacity="1.00" stroke-width="0.3"><path d="
M 242.00 328.00 
C 237.45 327.16 238.72 341.11 239.00 344.00 C 239.28 346.89 236.91 359.29 241.25 359.59 C 245.60 359.90 244.16 347.17 244.00 344.00 C 243.84 340.83 245.79 328.70 242.00 328.00 Z"/>
</g>
<g fill="None" fill-opacity="0.0" stroke="#006EB7" stroke-opacity="1.00" stroke-width="0.3"><path d="
M 232.00 342.00 
C 236.15 335.79 235.80 328.54 225.00 329.00 C 214.20 329.46 218.74 336.13 217.00 346.00 C 215.26 355.87 220.07 361.70 229.92 358.92 C 239.77 356.15 234.49 346.92 232.00 342.00
M 223.00 341.00 
C 221.75 336.96 223.52 330.46 227.74 334.26 C 231.97 338.06 226.68 342.29 223.00 341.00
M 223.00 355.00 
C 223.00 352.00 223.00 349.00 223.00 346.00
C 231.25 342.98 231.07 357.64 223.00 355.00 Z"/>
</g>
<g fill="None" fill-opacity="0.0" stroke="#00A8EB" stroke-opacity="1.00" stroke-width="0.3"><path d="
M 223.00 341.00 
C 226.68 342.29 231.97 338.06 227.74 334.26 C 223.52 330.46 221.75 336.96 223.00 341.00 Z"/>
</g>
<g fill="None" fill-opacity="0.0" stroke="#006EB7" stroke-opacity="1.00" stroke-width="0.3"><path d="
M 260.00 360.00 
C 268.08 356.98 261.38 351.39 264.00 344.00 C 266.62 336.61 256.26 333.76 258.00 342.00 C 259.74 350.24 255.97 355.84 254.00 352.00 C 252.03 348.16 255.93 333.58 250.26 336.26 C 244.58 338.94 250.96 349.63 249.03 354.97 C 247.09 360.32 259.06 358.35 260.00 360.00 Z"/>
</g>
<g fill="None" fill-opacity="0.0" stroke="#006EB7" stroke-opacity="1.00" stroke-width="0.3"><path d="
M 273.00 349.00 
C 280.81 352.13 287.01 342.25 279.74 337.26 C 272.48 332.26 266.60 339.64 267.00 347.00 C 267.40 354.36 268.95 361.82 277.97 358.97 C 287.00 356.12 278.20 344.66 276.00 355.00
C 272.55 355.34 272.84 351.31 273.00 349.00
M 276.00 340.00 
C 278.53 340.96 276.74 346.40 273.99 344.99 C 271.24 343.58 273.80 339.16 276.00 340.00 Z"/>
</g>
<g fill="None" fill-opacity="0.0" stroke="#00A8EB" stroke-opacity="1.00" stroke-width="0.3"><path d="
M 276.00 340.00 
C 273.80 339.16 271.24 343.58 273.99 344.99 C 276.74 346.40 278.53 340.96 276.00 340.00 Z"/>
</g>
<g fill="None" fill-opacity="0.0" stroke="#00A8EB" stroke-opacity="1.00" stroke-width="0.3"><path d="
M 223.00 355.00 
C 231.07 357.64 231.25 342.98 223.00 346.00
C 223.00 349.00 223.00 352.00 223.00 355.00 Z"/>
</g>
<g fill="None" fill-opacity="0.0" stroke="#006EB7" stroke-opacity="1.00" stroke-width="0.3"><path d="
M 1.00 542.00 
L 49.00 542.00
C 161.93 445.59 344.14 445.33 457.00 542.00
L 497.00 542.00
L 497.00 491.00
C 485.62 480.46 475.72 470.11 463.70 460.30 C 451.67 450.50 439.63 442.02 426.25 433.75 C 412.86 425.49 400.74 417.91 385.69 411.31 C 370.65 404.70 355.29 398.73 338.68 394.32 C 322.06 389.91 304.11 385.71 286.00 384.00 C 267.89 382.29 242.22 382.55 224.00 384.00 C 205.78 385.45 186.37 389.04 169.68 393.68 C 152.98 398.32 138.42 403.54 123.23 410.23 C 108.04 416.92 95.16 423.89 81.25 432.25 C 67.33 440.60 58.03 449.06 44.75 458.75 C 31.47 468.44 24.77 477.80 11.25 489.25 C -2.28 500.69 0.45 524.54 1.00 542.00
M 207.00 412.00 
C 211.26 413.38 208.32 425.92 209.00 429.00 C 209.68 432.08 210.12 444.96 205.30 443.64 C 200.49 442.32 203.63 430.23 203.00 427.00 C 202.37 423.77 201.51 410.23 207.00 412.00
M 247.00 414.00 
C 249.02 416.96 248.20 424.21 248.00 428.00 C 247.80 431.79 249.56 439.44 247.00 442.00
C 244.20 444.80 231.63 443.41 232.02 435.98 C 232.42 428.54 231.03 416.36 242.00 421.00
C 240.63 417.73 243.42 408.71 247.00 414.00
M 256.00 412.00 
C 259.11 412.91 258.02 419.90 254.30 418.64 C 250.58 417.39 251.89 410.79 256.00 412.00
M 228.00 423.00 
C 229.91 426.47 230.26 438.69 228.00 442.00
C 222.96 449.38 222.35 426.67 222.00 424.00
C 216.85 429.26 219.51 430.59 219.00 439.00 C 218.49 447.41 212.46 440.89 214.00 436.00 C 215.54 431.11 211.76 420.84 216.08 420.08 C 220.41 419.33 224.76 419.85 228.00 423.00
M 257.00 442.00 
C 250.75 448.25 248.52 417.71 256.00 420.00
C 259.51 421.08 259.11 439.89 257.00 442.00
M 262.00 437.00 
C 260.88 433.32 260.90 429.62 262.00 426.00
C 264.54 417.63 266.00 422.85 272.25 421.20 C 278.49 419.55 277.28 428.36 277.00 434.00 C 276.72 439.64 278.69 447.12 273.75 450.75 C 268.81 454.38 257.74 447.97 266.00 445.00
C 268.61 451.09 274.07 445.91 272.00 441.00
C 268.76 445.20 261.36 442.26 262.00 437.00
M 296.00 426.00 
C 297.15 429.65 297.14 433.41 296.00 437.00
C 294.43 441.98 286.38 446.35 282.77 441.23 C 279.16 436.11 279.28 428.06 282.77 422.77 C 286.26 417.48 294.20 420.31 296.00 426.00 Z"/>
</g>
<g fill="None" fill-opacity="0.0" stroke="#CBF1FB" stroke-opacity="1.00" stroke-width="0.3"><path d="
M 207.00 412.00 
C 201.51 410.23 202.37 423.77 203.00 427.00 C 203.63 430.23 200.49 442.32 205.30 443.64 C 210.12 444.96 209.68 432.08 209.00 429.00 C 208.32 425.92 211.26 413.38 207.00 412.00 Z"/>
</g>
<g fill="None" fill-opacity="0.0" stroke="#CBF1FB" stroke-opacity="1.00" stroke-width="0.3"><path d="
M 247.00 442.00 
C 248.68 439.40 246.86 431.27 247.00 428.00 C 247.14 424.73 248.30 417.00 247.00 414.00
C 243.42 408.71 240.63 417.73 242.00 421.00
C 231.03 416.36 232.42 428.54 232.02 435.98 C 231.63 443.41 244.20 444.80 247.00 442.00
M 238.00 436.00 
C 236.75 433.44 236.33 429.50 238.00 427.00
C 243.84 418.23 243.31 446.88 238.00 436.00 Z"/>
</g>
<g fill="None" fill-opacity="0.0" stroke="#CBF1FB" stroke-opacity="1.00" stroke-width="0.3"><path d="
M 256.00 412.00 
C 251.89 410.79 250.58 417.39 254.30 418.64 C 258.02 419.90 259.11 412.91 256.00 412.00 Z"/>
</g>
<g fill="None" fill-opacity="0.0" stroke="#00A8EB" stroke-opacity="1.00" stroke-width="0.3"><path d="
M 247.00 442.00 
C 249.56 439.44 247.80 431.79 248.00 428.00 C 248.20 424.21 249.02 416.96 247.00 414.00
C 248.30 417.00 247.14 424.73 247.00 428.00 C 246.86 431.27 248.68 439.40 247.00 442.00 Z"/>
</g>
<g fill="None" fill-opacity="0.0" stroke="#CBF1FB" stroke-opacity="1.00" stroke-width="0.3"><path d="
M 228.00 442.00 
C 229.28 439.05 229.11 426.04 228.00 423.00
C 224.76 419.85 220.41 419.33 216.08 420.08 C 211.76 420.84 215.54 431.11 214.00 436.00 C 212.46 440.89 218.49 447.41 219.00 439.00 C 219.51 430.59 216.85 429.26 222.00 424.00
C 222.35 426.67 222.96 449.38 228.00 442.00 Z"/>
</g>
<g fill="None" fill-opacity="0.0" stroke="#CBF1FB" stroke-opacity="1.00" stroke-width="0.3"><path d="
M 257.00 442.00 
C 258.21 440.17 256.88 433.20 257.00 431.00 C 257.12 428.80 258.12 421.22 256.00 420.00
C 248.52 417.71 250.75 448.25 257.00 442.00 Z"/>
</g>
<g fill="None" fill-opacity="0.0" stroke="#00A8EB" stroke-opacity="1.00" stroke-width="0.3"><path d="
M 257.00 442.00 
C 259.11 439.89 259.51 421.08 256.00 420.00
C 258.12 421.22 257.12 428.80 257.00 431.00 C 256.88 433.20 258.21 440.17 257.00 442.00 Z"/>
</g>
<g fill="None" fill-opacity="0.0" stroke="#CBF1FB" stroke-opacity="1.00" stroke-width="0.3"><path d="
M 262.00 426.00 
C 261.48 429.05 261.48 433.95 262.00 437.00
C 261.36 442.26 268.76 445.20 272.00 441.00
C 274.07 445.91 268.61 451.09 266.00 445.00
C 257.74 447.97 268.81 454.38 273.75 450.75 C 278.69 447.12 276.72 439.64 277.00 434.00 C 277.28 428.36 278.49 419.55 272.25 421.20 C 266.00 422.85 264.54 417.63 262.00 426.00
M 270.00 424.00 
C 273.82 424.83 272.83 439.75 268.97 438.97 C 265.11 438.19 265.80 423.09 270.00 424.00 Z"/>
</g>
<g fill="None" fill-opacity="0.0" stroke="#CBF1FB" stroke-opacity="1.00" stroke-width="0.3"><path d="
M 296.00 437.00 
C 296.54 434.01 296.54 428.99 296.00 426.00
C 294.20 420.31 286.26 417.48 282.77 422.77 C 279.28 428.06 279.16 436.11 282.77 441.23 C 286.38 446.35 294.43 441.98 296.00 437.00
M 287.00 438.00 
C 285.25 435.41 285.31 428.54 287.00 426.00
C 292.95 417.08 292.38 445.98 287.00 438.00 Z"/>
</g>
<g fill="None" fill-opacity="0.0" stroke="#00A8EB" stroke-opacity="1.00" stroke-width="0.3"><path d="
M 228.00 442.00 
C 230.26 438.69 229.91 426.47 228.00 423.00
C 229.11 426.04 229.28 439.05 228.00 442.00 Z"/>
</g>
<g fill="None" fill-opacity="0.0" stroke="#006EB7" stroke-opacity="1.00" stroke-width="0.3"><path d="
M 270.00 424.00 
C 265.80 423.09 265.11 438.19 268.97 438.97 C 272.83 439.75 273.82 424.83 270.00 424.00 Z"/>
</g>
<g fill="None" fill-opacity="0.0" stroke="#006EB7" stroke-opacity="1.00" stroke-width="0.3"><path d="
M 287.00 426.00 
C 286.25 427.78 286.25 436.22 287.00 438.00
C 292.38 445.98 292.95 417.08 287.00 426.00 Z"/>
</g>
<g fill="None" fill-opacity="0.0" stroke="#006EB7" stroke-opacity="1.00" stroke-width="0.3"><path d="
M 238.00 427.00 
C 237.36 428.52 237.52 434.40 238.00 436.00
C 243.31 446.88 243.84 418.23 238.00 427.00 Z"/>
</g>
<g fill="None" fill-opacity="0.0" stroke="#00A8EB" stroke-opacity="1.00" stroke-width="0.3"><path d="
M 262.00 437.00 
C 261.48 433.95 261.48 429.05 262.00 426.00
C 260.90 429.62 260.88 433.32 262.00 437.00 Z"/>
</g>
<g fill="None" fill-opacity="0.0" stroke="#00A8EB" stroke-opacity="1.00" stroke-width="0.3"><path d="
M 287.00 438.00 
C 286.25 436.22 286.25 427.78 287.00 426.00
C 285.31 428.54 285.25 435.41 287.00 438.00 Z"/>
</g>
<g fill="None" fill-opacity="0.0" stroke="#00A8EB" stroke-opacity="1.00" stroke-width="0.3"><path d="
M 296.00 437.00 
C 297.14 433.41 297.15 429.65 296.00 426.00
C 296.54 428.99 296.54 434.01 296.00 437.00 Z"/>
</g>
<g fill="None" fill-opacity="0.0" stroke="#00A8EB" stroke-opacity="1.00" stroke-width="0.3"><path d="
M 238.00 436.00 
C 237.52 434.40 237.36 428.52 238.00 427.00
C 236.33 429.50 236.75 433.44 238.00 436.00 Z"/>
</g>
<g fill="None" fill-opacity="0.0" stroke="#653594" stroke-opacity="1.00" stroke-width="0.3"><path d="
M 49.00 542.00 
L 457.00 542.00
C 344.14 445.33 161.93 445.59 49.00 542.00
M 215.00 517.00 
C 220.18 509.45 215.14 506.07 219.00 497.00 C 222.86 487.93 226.92 500.84 223.01 506.01 C 219.10 511.17 223.62 522.89 215.97 523.97 C 208.32 525.06 211.56 511.72 208.22 507.78 C 204.88 503.83 206.82 487.95 211.30 495.70 C 215.79 503.44 212.07 509.18 215.00 517.00
M 232.00 493.00 
C 234.90 493.71 233.75 499.81 230.30 498.64 C 226.85 497.47 228.66 492.19 232.00 493.00
M 261.00 493.00 
C 264.39 494.95 260.88 506.90 262.00 510.00 C 263.12 513.10 262.52 525.73 258.32 523.66 C 254.12 521.59 258.28 510.02 257.00 507.00 C 255.72 503.98 256.46 490.39 261.00 493.00
M 293.00 501.00 
C 289.04 507.07 288.61 517.02 293.00 523.00
C 278.96 526.21 289.73 507.32 282.00 504.00
C 286.06 501.61 282.26 497.09 286.26 494.26 C 290.26 491.43 289.03 503.04 293.00 501.00
M 233.00 501.00 
C 233.80 505.18 233.58 526.29 229.25 522.74 C 224.93 519.19 226.62 499.77 233.00 501.00
M 249.00 501.00 
C 258.45 504.71 252.54 528.31 242.33 523.67 C 232.12 519.03 236.93 496.26 249.00 501.00
M 271.00 513.00 
C 270.76 515.85 270.94 520.80 275.00 520.00
C 276.40 510.15 285.66 519.27 276.92 522.92 C 268.18 526.56 266.75 518.99 266.00 512.00 C 265.25 505.01 270.45 496.76 278.22 501.78 C 286.00 506.79 278.54 517.00 271.00 513.00 Z"/>
</g>
<g fill="None" fill-opacity="0.0" stroke="#CBF1FB" stroke-opacity="1.00" stroke-width="0.3"><path d="
M 215.00 517.00 
C 212.07 509.18 215.79 503.44 211.30 495.70 C 206.82 487.95 204.88 503.83 208.22 507.78 C 211.56 511.72 208.32 525.06 215.97 523.97 C 223.62 522.89 219.10 511.17 223.01 506.01 C 226.92 500.84 222.86 487.93 219.00 497.00 C 215.14 506.07 220.18 509.45 215.00 517.00 Z"/>
</g>
<g fill="None" fill-opacity="0.0" stroke="#CBF1FB" stroke-opacity="1.00" stroke-width="0.3"><path d="
M 232.00 493.00 
C 228.66 492.19 226.85 497.47 230.30 498.64 C 233.75 499.81 234.90 493.71 232.00 493.00 Z"/>
</g>
<g fill="None" fill-opacity="0.0" stroke="#CBF1FB" stroke-opacity="1.00" stroke-width="0.3"><path d="
M 261.00 493.00 
C 256.46 490.39 255.72 503.98 257.00 507.00 C 258.28 510.02 254.12 521.59 258.32 523.66 C 262.52 525.73 263.12 513.10 262.00 510.00 C 260.88 506.90 264.39 494.95 261.00 493.00 Z"/>
</g>
<g fill="None" fill-opacity="0.0" stroke="#CBF1FB" stroke-opacity="1.00" stroke-width="0.3"><path d="
M 293.00 501.00 
C 289.03 503.04 290.26 491.43 286.26 494.26 C 282.26 497.09 286.06 501.61 282.00 504.00
C 289.73 507.32 278.96 526.21 293.00 523.00
C 288.61 517.02 289.04 507.07 293.00 501.00 Z"/>
</g>
<g fill="None" fill-opacity="0.0" stroke="#CBF1FB" stroke-opacity="1.00" stroke-width="0.3"><path d="
M 233.00 501.00 
C 226.62 499.77 224.93 519.19 229.25 522.74 C 233.58 526.29 233.80 505.18 233.00 501.00 Z"/>
</g>
<g fill="None" fill-opacity="0.0" stroke="#CBF1FB" stroke-opacity="1.00" stroke-width="0.3"><path d="
M 249.00 501.00 
C 236.93 496.26 232.12 519.03 242.33 523.67 C 252.54 528.31 258.45 504.71 249.00 501.00
M 247.00 520.00 
C 242.01 522.01 240.33 505.35 244.26 504.26 C 248.18 503.16 249.31 517.27 247.00 520.00 Z"/>
</g>
<g fill="None" fill-opacity="0.0" stroke="#CBF1FB" stroke-opacity="1.00" stroke-width="0.3"><path d="
M 271.00 513.00 
C 278.54 517.00 286.00 506.79 278.22 501.78 C 270.45 496.76 265.25 505.01 266.00 512.00 C 266.75 518.99 268.18 526.56 276.92 522.92 C 285.66 519.27 276.40 510.15 275.00 520.00
C 270.94 520.80 270.76 515.85 271.00 513.00
M 274.00 504.00 
C 276.99 504.37 276.60 510.55 272.97 509.97 C 269.35 509.39 271.63 503.71 274.00 504.00 Z"/>
</g>
<g fill="None" fill-opacity="0.0" stroke="#653594" stroke-opacity="1.00" stroke-width="0.3"><path d="
M 247.00 520.00 
C 249.31 517.27 248.18 503.16 244.26 504.26 C 240.33 505.35 242.01 522.01 247.00 520.00 Z"/>
</g>
<g fill="None" fill-opacity="0.0" stroke="#653594" stroke-opacity="1.00" stroke-width="0.3"><path d="
M 274.00 504.00 
C 271.63 503.71 269.35 509.39 272.97 509.97 C 276.60 510.55 276.99 504.37 274.00 504.00 Z"/>
</g>
<g fill="#CBF1FB" fill-opacity="1.00" stroke="None">
<path d="
M 0.00 127.00 
C 64.08 55.72 148.67 11.75 244.00 9.00 C 339.33 6.25 430.85 46.72 497.00 117.00
L 497.00 0.00
L 0.00 0.00
L 0.00 127.00 Z"/>
</g>
<g fill="#F91819" fill-opacity="1.00" stroke="None">
<path d="
M 0.00 127.00 
L 0.00 198.00
C 65.07 129.14 147.57 82.98 243.02 80.02 C 338.48 77.07 430.52 119.83 497.00 188.00
L 497.00 117.00
C 430.85 46.72 339.33 6.25 244.00 9.00 C 148.67 11.75 64.08 55.72 0.00 127.00
M 236.00 45.00 
C 241.10 48.65 237.48 55.28 240.00 60.00
C 228.74 65.69 239.44 44.28 228.00 48.00
C 230.92 60.77 222.06 63.05 223.00 52.00 C 223.94 40.95 219.43 32.33 230.00 31.00 C 240.57 29.67 241.83 40.31 236.00 45.00
M 276.00 31.00 
C 276.00 41.00 276.00 51.00 276.00 61.00
C 269.11 60.89 261.34 61.33 261.02 51.98 C 260.71 42.62 263.34 34.57 272.00 41.00
C 272.68 37.37 269.64 29.56 276.00 31.00
M 248.00 50.00 
C 247.89 53.05 247.46 58.74 252.00 58.00
C 253.10 55.75 253.31 52.04 257.00 53.00
C 259.79 63.77 244.55 62.54 243.67 55.33 C 242.80 48.11 242.17 36.85 252.01 38.01 C 261.85 39.16 258.04 55.55 248.00 50.00 Z"/>
</g>
<g fill="#CBF1FB" fill-opacity="1.00" stroke="None">
<path d="
M 236.00 45.00 
C 241.83 40.31 240.57 29.67 230.00 31.00 C 219.43 32.33 223.94 40.95 223.00 52.00 C 222.06 63.05 230.92 60.77 228.00 48.00
C 239.44 44.28 228.74 65.69 240.00 60.00
C 237.48 55.28 241.10 48.65 236.00 45.00
M 228.00 44.00 
C 228.00 41.00 228.00 38.00 228.00 35.00
C 236.20 31.78 236.24 47.21 228.00 44.00 Z"/>
</g>
<g fill="#CBF1FB" fill-opacity="1.00" stroke="None">
<path d="
M 276.00 31.00 
C 269.64 29.56 272.68 37.37 272.00 41.00
C 263.34 34.57 260.71 42.62 261.02 51.98 C 261.34 61.33 269.11 60.89 276.00 61.00
C 276.00 51.00 276.00 41.00 276.00 31.00
M 270.00 42.00 
C 273.90 43.34 272.82 58.67 268.25 57.59 C 263.69 56.51 264.84 40.23 270.00 42.00 Z"/>
</g>
<g fill="#F91819" fill-opacity="1.00" stroke="None">
<path d="
M 228.00 44.00 
C 236.24 47.21 236.20 31.78 228.00 35.00
C 228.00 38.00 228.00 41.00 228.00 44.00 Z"/>
</g>
<g fill="#CBF1FB" fill-opacity="1.00" stroke="None">
<path d="
M 248.00 50.00 
C 258.04 55.55 261.85 39.16 252.01 38.01 C 242.17 36.85 242.80 48.11 243.67 55.33 C 244.55 62.54 259.79 63.77 257.00 53.00
C 253.31 52.04 253.10 55.75 252.00 58.00
C 247.46 58.74 247.89 53.05 248.00 50.00
M 252.00 42.00 
C 255.11 43.58 251.99 48.81 249.00 47.00 C 246.00 45.18 249.35 40.66 252.00 42.00 Z"/>
</g>
<g fill="#F91819" fill-opacity="1.00" stroke="None">
<path d="
M 252.00 42.00 
C 249.35 40.66 246.00 45.18 249.00 47.00 C 251.99 48.81 255.11 43.58 252.00 42.00 Z"/>
</g>
<g fill="#F91819" fill-opacity="1.00" stroke="None">
<path d="
M 270.00 42.00 
C 264.84 40.23 263.69 56.51 268.25 57.59 C 272.82 58.67 273.90 43.34 270.00 42.00 Z"/>
</g>
<g fill="#F5A11B" fill-opacity="1.00" stroke="None">
<path d="
M 0.00 198.00 
L 0.00 268.00
C 65.49 198.23 147.44 153.03 243.00 150.00 C 338.56 146.97 430.51 189.29 497.00 258.00
L 497.00 188.00
C 430.52 119.83 338.48 77.07 243.02 80.02 C 147.57 82.98 65.07 129.14 0.00 198.00
M 209.00 102.00 
C 220.75 106.07 214.22 138.78 201.33 132.67 C 188.44 126.56 194.54 96.99 209.00 102.00
M 246.00 133.00 
C 241.91 129.61 235.10 135.94 232.10 130.90 C 229.10 125.85 231.68 120.62 237.70 118.70 C 243.71 116.77 237.24 109.09 235.00 118.00
C 225.86 115.60 237.25 105.51 243.00 110.00 C 248.75 114.49 244.88 126.30 246.00 133.00
M 255.00 133.00 
C 247.25 133.78 251.51 125.92 250.00 121.00 C 248.49 116.08 251.21 108.60 254.89 111.11 C 258.57 113.62 262.70 105.34 264.75 112.25 C 266.80 119.16 264.51 121.43 265.00 129.00 C 265.49 136.57 257.00 129.71 260.00 125.00 C 263.00 120.29 258.00 111.03 256.08 116.09 C 254.17 121.14 257.65 128.09 255.00 133.00
M 282.00 109.00 
C 286.71 114.47 282.30 124.74 284.00 131.00 C 285.70 137.26 278.05 146.54 271.31 139.69 C 264.56 132.85 282.90 140.21 279.00 131.00
C 267.90 134.49 269.53 127.59 269.00 118.00 C 268.47 108.41 276.70 111.94 282.00 109.00
M 293.00 122.00 
C 292.76 124.85 292.94 129.80 297.00 129.00
C 298.44 118.32 308.40 129.72 298.77 132.77 C 289.14 135.82 288.00 126.92 288.00 120.00 C 288.00 113.08 292.12 106.09 299.68 110.32 C 307.24 114.55 301.72 126.52 293.00 122.00
M 223.00 110.00 
C 222.57 115.92 225.47 107.70 229.00 110.00
C 230.15 114.12 227.58 116.30 224.00 117.00
C 224.04 122.44 224.29 127.88 223.00 133.00
C 215.25 132.95 214.86 109.78 223.00 110.00 Z"/>
</g>
<g fill="#AF5114" fill-opacity="1.00" stroke="None">
<path d="
M 209.00 102.00 
C 194.54 96.99 188.44 126.56 201.33 132.67 C 214.22 138.78 220.75 106.07 209.00 102.00
M 206.00 106.00 
C 209.34 107.11 207.55 115.44 208.00 118.00 C 208.45 120.56 208.75 129.75 204.30 128.64 C 199.85 127.54 202.74 119.52 202.00 117.00 C 201.26 114.48 201.47 104.49 206.00 106.00 Z"/>
</g>
<g fill="#F5A11B" fill-opacity="1.00" stroke="None">
<path d="
M 206.00 106.00 
C 201.47 104.49 201.26 114.48 202.00 117.00 C 202.74 119.52 199.85 127.54 204.30 128.64 C 208.75 129.75 208.45 120.56 208.00 118.00 C 207.55 115.44 209.34 107.11 206.00 106.00 Z"/>
</g>
<g fill="#AF5114" fill-opacity="1.00" stroke="None">
<path d="
M 246.00 133.00 
C 244.88 126.30 248.75 114.49 243.00 110.00 C 237.25 105.51 225.86 115.60 235.00 118.00
C 237.24 109.09 243.71 116.77 237.70 118.70 C 231.68 120.62 229.10 125.85 232.10 130.90 C 235.10 135.94 241.91 129.61 246.00 133.00
M 241.00 121.00 
C 243.31 133.66 230.37 125.65 241.00 121.00 Z"/>
</g>
<g fill="#AF5114" fill-opacity="1.00" stroke="None">
<path d="
M 255.00 133.00 
C 257.65 128.09 254.17 121.14 256.08 116.09 C 258.00 111.03 263.00 120.29 260.00 125.00 C 257.00 129.71 265.49 136.57 265.00 129.00 C 264.51 121.43 266.80 119.16 264.75 112.25 C 262.70 105.34 258.57 113.62 254.89 111.11 C 251.21 108.60 248.49 116.08 250.00 121.00 C 251.51 125.92 247.25 133.78 255.00 133.00 Z"/>
</g>
<g fill="#AF5114" fill-opacity="1.00" stroke="None">
<path d="
M 282.00 109.00 
C 276.70 111.94 268.47 108.41 269.00 118.00 C 269.53 127.59 267.90 134.49 279.00 131.00
C 282.90 140.21 264.56 132.85 271.31 139.69 C 278.05 146.54 285.70 137.26 284.00 131.00 C 282.30 124.74 286.71 114.47 282.00 109.00
M 278.00 114.00 
C 281.02 115.80 279.25 129.38 275.32 127.66 C 271.39 125.94 273.73 111.46 278.00 114.00 Z"/>
</g>
<g fill="#AF5114" fill-opacity="1.00" stroke="None">
<path d="
M 293.00 122.00 
C 301.72 126.52 307.24 114.55 299.68 110.32 C 292.12 106.09 288.00 113.08 288.00 120.00 C 288.00 126.92 289.14 135.82 298.77 132.77 C 308.40 129.72 298.44 118.32 297.00 129.00
C 292.94 129.80 292.76 124.85 293.00 122.00
M 297.00 114.00 
C 299.99 115.26 296.61 119.78 294.00 118.00 C 291.38 116.21 294.63 113.00 297.00 114.00 Z"/>
</g>
<g fill="#AF5114" fill-opacity="1.00" stroke="None">
<path d="
M 223.00 110.00 
C 214.86 109.78 215.25 132.95 223.00 133.00
C 224.29 127.88 224.04 122.44 224.00 117.00
C 227.58 116.30 230.15 114.12 229.00 110.00
C 225.47 107.70 222.57 115.92 223.00 110.00 Z"/>
</g>
<g fill="#F5A11B" fill-opacity="1.00" stroke="None">
<path d="
M 278.00 114.00 
C 273.73 111.46 271.39 125.94 275.32 127.66 C 279.25 129.38 281.02 115.80 278.00 114.00 Z"/>
</g>
<g fill="#F5A11B" fill-opacity="1.00" stroke="None">
<path d="
M 297.00 114.00 
C 294.63 113.00 291.38 116.21 294.00 118.00 C 296.61 119.78 299.99 115.26 297.00 114.00 Z"/>
</g>
<g fill="#F5A11B" fill-opacity="1.00" stroke="None">
<path d="
M 241.00 121.00 
C 230.37 125.65 243.31 133.66 241.00 121.00 Z"/>
</g>
<g fill="#F0EF03" fill-opacity="1.00" stroke="None">
<path d="
M 0.00 268.00 
L 0.00 349.00
C 64.61 278.49 147.32 233.96 243.00 231.00 C 338.68 228.04 430.88 269.24 497.00 339.00
L 497.00 258.00
C 430.51 189.29 338.56 146.97 243.00 150.00 C 147.44 153.03 65.49 198.23 0.00 268.00
M 209.00 188.00 
C 209.44 185.50 213.10 174.04 216.68 176.34 C 220.26 178.64 214.02 187.91 212.69 190.69 C 211.37 193.48 211.72 207.85 207.97 206.97 C 204.22 206.09 206.03 193.83 204.23 190.77 C 202.42 187.71 197.27 179.49 200.76 176.75 C 204.24 174.01 207.83 185.47 209.00 188.00
M 240.00 176.00 
C 243.18 177.70 240.25 189.93 241.00 193.00 C 241.75 196.07 242.14 208.33 237.77 206.21 C 233.40 204.10 237.36 192.89 236.00 190.00 C 234.64 187.11 236.34 174.04 240.00 176.00
M 250.00 176.00 
C 253.18 177.70 250.25 189.93 251.00 193.00 C 251.75 196.07 252.14 208.33 247.77 206.21 C 243.40 204.10 247.36 192.89 246.00 190.00 C 244.64 187.11 246.34 174.04 250.00 176.00
M 223.00 196.00 
C 222.76 198.85 222.94 203.80 227.00 203.00
C 237.06 190.01 229.80 211.57 222.33 206.67 C 214.86 201.77 214.24 187.79 223.03 184.03 C 231.82 180.26 239.44 201.38 223.00 196.00
M 267.00 184.00 
C 276.45 187.71 270.54 211.31 260.33 206.67 C 250.12 202.03 254.93 179.26 267.00 184.00
M 280.00 198.00 
C 285.23 196.13 279.40 182.67 288.00 184.00
C 288.54 189.10 289.49 194.14 291.00 199.00
C 294.14 194.91 289.89 183.24 298.00 184.00
C 295.74 191.32 298.61 197.50 294.67 204.67 C 290.73 211.84 285.53 197.82 285.00 195.00
C 288.15 200.49 279.76 211.41 277.08 203.92 C 274.41 196.43 274.99 191.63 274.00 184.00
C 281.60 182.93 278.79 193.30 280.00 198.00 Z"/>
</g>
<g fill="#F5A11B" fill-opacity="1.00" stroke="None">
<path d="
M 209.00 188.00 
C 207.83 185.47 204.24 174.01 200.76 176.75 C 197.27 179.49 202.42 187.71 204.23 190.77 C 206.03 193.83 204.22 206.09 207.97 206.97 C 211.72 207.85 211.37 193.48 212.69 190.69 C 214.02 187.91 220.26 178.64 216.68 176.34 C 213.10 174.04 209.44 185.50 209.00 188.00 Z"/>
</g>
<g fill="#F5A11B" fill-opacity="1.00" stroke="None">
<path d="
M 240.00 176.00 
C 236.34 174.04 234.64 187.11 236.00 190.00 C 237.36 192.89 233.40 204.10 237.77 206.21 C 242.14 208.33 241.75 196.07 241.00 193.00 C 240.25 189.93 243.18 177.70 240.00 176.00 Z"/>
</g>
<g fill="#F5A11B" fill-opacity="1.00" stroke="None">
<path d="
M 250.00 176.00 
C 246.34 174.04 244.64 187.11 246.00 190.00 C 247.36 192.89 243.40 204.10 247.77 206.21 C 252.14 208.33 251.75 196.07 251.00 193.00 C 250.25 189.93 253.18 177.70 250.00 176.00 Z"/>
</g>
<g fill="#F5A11B" fill-opacity="1.00" stroke="None">
<path d="
M 223.00 196.00 
C 239.44 201.38 231.82 180.26 223.03 184.03 C 214.24 187.79 214.86 201.77 222.33 206.67 C 229.80 211.57 237.06 190.01 227.00 203.00
C 222.94 203.80 222.76 198.85 223.00 196.00
M 226.00 187.00 
C 227.83 187.27 229.48 192.45 225.75 192.19 C 222.03 191.93 223.04 186.57 226.00 187.00 Z"/>
</g>
<g fill="#F5A11B" fill-opacity="1.00" stroke="None">
<path d="
M 267.00 184.00 
C 254.93 179.26 250.12 202.03 260.33 206.67 C 270.54 211.31 276.45 187.71 267.00 184.00
M 264.00 187.00 
C 266.89 189.43 267.20 203.51 262.97 202.97 C 258.73 202.43 259.94 186.99 264.00 187.00 Z"/>
</g>
<g fill="#F5A11B" fill-opacity="1.00" stroke="None">
<path d="
M 280.00 198.00 
C 278.79 193.30 281.60 182.93 274.00 184.00
C 274.99 191.63 274.41 196.43 277.08 203.92 C 279.76 211.41 288.15 200.49 285.00 195.00
C 285.53 197.82 290.73 211.84 294.67 204.67 C 298.61 197.50 295.74 191.32 298.00 184.00
C 289.89 183.24 294.14 194.91 291.00 199.00
C 289.49 194.14 288.54 189.10 288.00 184.00
C 279.40 182.67 285.23 196.13 280.00 198.00 Z"/>
</g>
<g fill="#F0EF03" fill-opacity="1.00" stroke="None">
<path d="
M 226.00 187.00 
C 223.04 186.57 222.03 191.93 225.75 192.19 C 229.48 192.45 227.83 187.27 226.00 187.00 Z"/>
</g>
<g fill="#F0EF03" fill-opacity="1.00" stroke="None">
<path d="
M 264.00 187.00 
C 259.94 186.99 258.73 202.43 262.97 202.97 C 267.20 203.51 266.89 189.43 264.00 187.00 Z"/>
</g>
<g fill="#67CC40" fill-opacity="1.00" stroke="None">
<path d="
M 0.00 349.00 
L 0.00 422.00
C 64.68 351.67 147.35 307.00 243.00 304.00 C 338.65 301.00 430.83 342.39 497.00 412.00
L 497.00 339.00
C 430.88 269.24 338.68 228.04 243.00 231.00 C 147.32 233.96 64.61 278.49 0.00 349.00
M 219.00 261.00 
C 215.59 250.01 212.37 258.70 212.00 267.00 C 211.63 275.30 218.38 283.12 219.00 270.00
C 210.12 271.33 217.08 261.59 222.00 265.00 C 226.92 268.41 222.46 276.95 224.00 282.00
C 219.21 279.04 208.56 284.73 207.03 274.97 C 205.50 265.22 204.10 257.85 211.70 251.70 C 219.30 245.54 230.61 262.63 219.00 261.00
M 233.00 259.00 
C 232.57 264.92 235.47 256.70 239.00 259.00
C 239.91 262.51 238.11 266.20 234.00 265.00
C 234.90 269.16 231.35 286.28 228.23 279.77 C 225.12 273.25 226.90 259.53 233.00 259.00
M 246.00 271.00 
C 245.76 273.85 245.94 278.80 250.00 278.00
C 260.06 265.01 252.80 286.57 245.33 281.67 C 237.86 276.77 237.24 262.79 246.03 259.03 C 254.82 255.26 262.44 276.38 246.00 271.00
M 264.00 271.00 
C 264.07 273.52 263.07 278.25 267.00 278.00
C 276.43 265.08 271.11 286.25 263.33 281.67 C 255.55 277.09 255.32 263.53 263.08 259.08 C 270.83 254.62 280.39 275.60 264.00 271.00
M 283.00 263.00 
C 281.52 268.71 282.32 271.58 282.00 278.00 C 281.68 284.42 275.63 280.67 277.00 275.00 C 278.37 269.33 275.44 264.21 278.00 259.00
C 281.98 259.92 291.41 258.02 291.97 264.03 C 292.54 270.03 293.34 283.41 287.78 281.22 C 282.21 279.03 292.89 261.71 283.00 263.00 Z"/>
</g>
<g fill="#1C5F06" fill-opacity="1.00" stroke="None">
<path d="
M 219.00 261.00 
C 230.61 262.63 219.30 245.54 211.70 251.70 C 204.10 257.85 205.50 265.22 207.03 274.97 C 208.56 284.73 219.21 279.04 224.00 282.00
C 222.46 276.95 226.92 268.41 222.00 265.00 C 217.08 261.59 210.12 271.33 219.00 270.00
C 218.38 283.12 211.63 275.30 212.00 267.00 C 212.37 258.70 215.59 250.01 219.00 261.00 Z"/>
</g>
<g fill="#1C5F06" fill-opacity="1.00" stroke="None">
<path d="
M 233.00 259.00 
C 226.90 259.53 225.12 273.25 228.23 279.77 C 231.35 286.28 234.90 269.16 234.00 265.00
C 238.11 266.20 239.91 262.51 239.00 259.00
C 235.47 256.70 232.57 264.92 233.00 259.00 Z"/>
</g>
<g fill="#1C5F06" fill-opacity="1.00" stroke="None">
<path d="
M 246.00 271.00 
C 262.44 276.38 254.82 255.26 246.03 259.03 C 237.24 262.79 237.86 276.77 245.33 281.67 C 252.80 286.57 260.06 265.01 250.00 278.00
C 245.94 278.80 245.76 273.85 246.00 271.00
M 251.00 267.00 
C 240.76 269.05 251.08 256.87 251.00 267.00 Z"/>
</g>
<g fill="#1C5F06" fill-opacity="1.00" stroke="None">
<path d="
M 264.00 271.00 
C 280.39 275.60 270.83 254.62 263.08 259.08 C 255.32 263.53 255.55 277.09 263.33 281.67 C 271.11 286.25 276.43 265.08 267.00 278.00
C 263.07 278.25 264.07 273.52 264.00 271.00
M 268.00 267.00 
C 258.73 268.06 269.44 257.02 268.00 267.00 Z"/>
</g>
<g fill="#1C5F06" fill-opacity="1.00" stroke="None">
<path d="
M 283.00 263.00 
C 292.89 261.71 282.21 279.03 287.78 281.22 C 293.34 283.41 292.54 270.03 291.97 264.03 C 291.41 258.02 281.98 259.92 278.00 259.00
C 275.44 264.21 278.37 269.33 277.00 275.00 C 275.63 280.67 281.68 284.42 282.00 278.00 C 282.32 271.58 281.52 268.71 283.00 263.00 Z"/>
</g>
<g fill="#67CC40" fill-opacity="1.00" stroke="None">
<path d="
M 251.00 267.00 
C 251.08 256.87 240.76 269.05 251.00 267.00 Z"/>
</g>
<g fill="#67CC40" fill-opacity="1.00" stroke="None">
<path d="
M 268.00 267.00 
C 269.44 257.02 258.73 268.06 268.00 267.00 Z"/>
</g>
<g fill="#00A8EB" fill-opacity="1.00" stroke="None">
<path d="
M 0.00 422.00 
L 0.00 542.00
L 1.00 542.00
C 0.45 524.54 -2.28 500.69 11.25 489.25 C 24.77 477.80 31.47 468.44 44.75 458.75 C 58.03 449.06 67.33 440.60 81.25 432.25 C 95.16 423.89 108.04 416.92 123.23 410.23 C 138.42 403.54 152.98 398.32 169.68 393.68 C 186.37 389.04 205.78 385.45 224.00 384.00 C 242.22 382.55 267.89 382.29 286.00 384.00 C 304.11 385.71 322.06 389.91 338.68 394.32 C 355.29 398.73 370.65 404.70 385.69 411.31 C 400.74 417.91 412.86 425.49 426.25 433.75 C 439.63 442.02 451.67 450.50 463.70 460.30 C 475.72 470.11 485.62 480.46 497.00 491.00
L 497.00 412.00
C 430.83 342.39 338.65 301.00 243.00 304.00 C 147.35 307.00 64.68 351.67 0.00 422.00
M 242.00 328.00 
C 245.79 328.70 243.84 340.83 244.00 344.00 C 244.16 347.17 245.60 359.90 241.25 359.59 C 236.91 359.29 239.28 346.89 239.00 344.00 C 238.72 341.11 237.45 327.16 242.00 328.00
M 232.00 342.00 
C 234.49 346.92 239.77 356.15 229.92 358.92 C 220.07 361.70 215.26 355.87 217.00 346.00 C 218.74 336.13 214.20 329.46 225.00 329.00 C 235.80 328.54 236.15 335.79 232.00 342.00
M 260.00 360.00 
C 259.06 358.35 247.09 360.32 249.03 354.97 C 250.96 349.63 244.58 338.94 250.26 336.26 C 255.93 333.58 252.03 348.16 254.00 352.00 C 255.97 355.84 259.74 350.24 258.00 342.00 C 256.26 333.76 266.62 336.61 264.00 344.00 C 261.38 351.39 268.08 356.98 260.00 360.00
M 273.00 349.00 
C 272.84 351.31 272.55 355.34 276.00 355.00
C 278.20 344.66 287.00 356.12 277.97 358.97 C 268.95 361.82 267.40 354.36 267.00 347.00 C 266.60 339.64 272.48 332.26 279.74 337.26 C 287.01 342.25 280.81 352.13 273.00 349.00 Z"/>
</g>
<g fill="#006EB7" fill-opacity="1.00" stroke="None">
<path d="
M 242.00 328.00 
C 237.45 327.16 238.72 341.11 239.00 344.00 C 239.28 346.89 236.91 359.29 241.25 359.59 C 245.60 359.90 244.16 347.17 244.00 344.00 C 243.84 340.83 245.79 328.70 242.00 328.00 Z"/>
</g>
<g fill="#006EB7" fill-opacity="1.00" stroke="None">
<path d="
M 232.00 342.00 
C 236.15 335.79 235.80 328.54 225.00 329.00 C 214.20 329.46 218.74 336.13 217.00 346.00 C 215.26 355.87 220.07 361.70 229.92 358.92 C 239.77 356.15 234.49 346.92 232.00 342.00
M 223.00 341.00 
C 221.75 336.96 223.52 330.46 227.74 334.26 C 231.97 338.06 226.68 342.29 223.00 341.00
M 223.00 355.00 
C 223.00 352.00 223.00 349.00 223.00 346.00
C 231.25 342.98 231.07 357.64 223.00 355.00 Z"/>
</g>
<g fill="#00A8EB" fill-opacity="1.00" stroke="None">
<path d="
M 223.00 341.00 
C 226.68 342.29 231.97 338.06 227.74 334.26 C 223.52 330.46 221.75 336.96 223.00 341.00 Z"/>
</g>
<g fill="#006EB7" fill-opacity="1.00" stroke="None">
<path d="
M 260.00 360.00 
C 268.08 356.98 261.38 351.39 264.00 344.00 C 266.62 336.61 256.26 333.76 258.00 342.00 C 259.74 350.24 255.97 355.84 254.00 352.00 C 252.03 348.16 255.93 333.58 250.26 336.26 C 244.58 338.94 250.96 349.63 249.03 354.97 C 247.09 360.32 259.06 358.35 260.00 360.00 Z"/>
</g>
<g fill="#006EB7" fill-opacity="1.00" stroke="None">
<path d="
M 273.00 349.00 
C 280.81 352.13 287.01 342.25 279.74 337.26 C 272.48 332.26 266.60 339.64 267.00 347.00 C 267.40 354.36 268.95 361.82 277.97 358.97 C 287.00 356.12 278.20 344.66 276.00 355.00
C 272.55 355.34 272.84 351.31 273.00 349.00
M 276.00 340.00 
C 278.53 340.96 276.74 346.40 273.99 344.99 C 271.24 343.58 273.80 339.16 276.00 340.00 Z"/>
</g>
<g fill="#00A8EB" fill-opacity="1.00" stroke="None">
<path d="
M 276.00 340.00 
C 273.80 339.16 271.24 343.58 273.99 344.99 C 276.74 346.40 278.53 340.96 276.00 340.00 Z"/>
</g>
<g fill="#00A8EB" fill-opacity="1.00" stroke="None">
<path d="
M 223.00 355.00 
C 231.07 357.64 231.25 342.98 223.00 346.00
C 223.00 349.00 223.00 352.00 223.00 355.00 Z"/>
</g>
<g fill="#006EB7" fill-opacity="1.00" stroke="None">
<path d="
M 1.00 542.00 
L 49.00 542.00
C 161.93 445.59 344.14 445.33 457.00 542.00
L 497.00 542.00
L 497.00 491.00
C 485.62 480.46 475.72 470.11 463.70 460.30 C 451.67 450.50 439.63 442.02 426.25 433.75 C 412.86 425.49 400.74 417.91 385.69 411.31 C 370.65 404.70 355.29 398.73 338.68 394.32 C 322.06 389.91 304.11 385.71 286.00 384.00 C 267.89 382.29 242.22 382.55 224.00 384.00 C 205.78 385.45 186.37 389.04 169.68 393.68 C 152.98 398.32 138.42 403.54 123.23 410.23 C 108.04 416.92 95.16 423.89 81.25 432.25 C 67.33 440.60 58.03 449.06 44.75 458.75 C 31.47 468.44 24.77 477.80 11.25 489.25 C -2.28 500.69 0.45 524.54 1.00 542.00
M 207.00 412.00 
C 211.26 413.38 208.32 425.92 209.00 429.00 C 209.68 432.08 210.12 444.96 205.30 443.64 C 200.49 442.32 203.63 430.23 203.00 427.00 C 202.37 423.77 201.51 410.23 207.00 412.00
M 247.00 414.00 
C 249.02 416.96 248.20 424.21 248.00 428.00 C 247.80 431.79 249.56 439.44 247.00 442.00
C 244.20 444.80 231.63 443.41 232.02 435.98 C 232.42 428.54 231.03 416.36 242.00 421.00
C 240.63 417.73 243.42 408.71 247.00 414.00
M 256.00 412.00 
C 259.11 412.91 258.02 419.90 254.30 418.64 C 250.58 417.39 251.89 410.79 256.00 412.00
M 228.00 423.00 
C 229.91 426.47 230.26 438.69 228.00 442.00
C 222.96 449.38 222.35 426.67 222.00 424.00
C 216.85 429.26 219.51 430.59 219.00 439.00 C 218.49 447.41 212.46 440.89 214.00 436.00 C 215.54 431.11 211.76 420.84 216.08 420.08 C 220.41 419.33 224.76 419.85 228.00 423.00
M 257.00 442.00 
C 250.75 448.25 248.52 417.71 256.00 420.00
C 259.51 421.08 259.11 439.89 257.00 442.00
M 262.00 437.00 
C 260.88 433.32 260.90 429.62 262.00 426.00
C 264.54 417.63 266.00 422.85 272.25 421.20 C 278.49 419.55 277.28 428.36 277.00 434.00 C 276.72 439.64 278.69 447.12 273.75 450.75 C 268.81 454.38 257.74 447.97 266.00 445.00
C 268.61 451.09 274.07 445.91 272.00 441.00
C 268.76 445.20 261.36 442.26 262.00 437.00
M 296.00 426.00 
C 297.15 429.65 297.14 433.41 296.00 437.00
C 294.43 441.98 286.38 446.35 282.77 441.23 C 279.16 436.11 279.28 428.06 282.77 422.77 C 286.26 417.48 294.20 420.31 296.00 426.00 Z"/>
</g>
<g fill="#CBF1FB" fill-opacity="1.00" stroke="None">
<path d="
M 207.00 412.00 
C 201.51 410.23 202.37 423.77 203.00 427.00 C 203.63 430.23 200.49 442.32 205.30 443.64 C 210.12 444.96 209.68 432.08 209.00 429.00 C 208.32 425.92 211.26 413.38 207.00 412.00 Z"/>
</g>
<g fill="#CBF1FB" fill-opacity="1.00" stroke="None">
<path d="
M 247.00 442.00 
C 248.68 439.40 246.86 431.27 247.00 428.00 C 247.14 424.73 248.30 417.00 247.00 414.00
C 243.42 408.71 240.63 417.73 242.00 421.00
C 231.03 416.36 232.42 428.54 232.02 435.98 C 231.63 443.41 244.20 444.80 247.00 442.00
M 238.00 436.00 
C 236.75 433.44 236.33 429.50 238.00 427.00
C 243.84 418.23 243.31 446.88 238.00 436.00 Z"/>
</g>
<g fill="#CBF1FB" fill-opacity="1.00" stroke="None">
<path d="
M 256.00 412.00 
C 251.89 410.79 250.58 417.39 254.30 418.64 C 258.02 419.90 259.11 412.91 256.00 412.00 Z"/>
</g>
<g fill="#00A8EB" fill-opacity="1.00" stroke="None">
<path d="
M 247.00 442.00 
C 249.56 439.44 247.80 431.79 248.00 428.00 C 248.20 424.21 249.02 416.96 247.00 414.00
C 248.30 417.00 247.14 424.73 247.00 428.00 C 246.86 431.27 248.68 439.40 247.00 442.00 Z"/>
</g>
<g fill="#CBF1FB" fill-opacity="1.00" stroke="None">
<path d="
M 228.00 442.00 
C 229.28 439.05 229.11 426.04 228.00 423.00
C 224.76 419.85 220.41 419.33 216.08 420.08 C 211.76 420.84 215.54 431.11 214.00 436.00 C 212.46 440.89 218.49 447.41 219.00 439.00 C 219.51 430.59 216.85 429.26 222.00 424.00
C 222.35 426.67 222.96 449.38 228.00 442.00 Z"/>
</g>
<g fill="#CBF1FB" fill-opacity="1.00" stroke="None">
<path d="
M 257.00 442.00 
C 258.21 440.17 256.88 433.20 257.00 431.00 C 257.12 428.80 258.12 421.22 256.00 420.00
C 248.52 417.71 250.75 448.25 257.00 442.00 Z"/>
</g>
<g fill="#00A8EB" fill-opacity="1.00" stroke="None">
<path d="
M 257.00 442.00 
C 259.11 439.89 259.51 421.08 256.00 420.00
C 258.12 421.22 257.12 428.80 257.00 431.00 C 256.88 433.20 258.21 440.17 257.00 442.00 Z"/>
</g>
<g fill="#CBF1FB" fill-opacity="1.00" stroke="None">
<path d="
M 262.00 426.00 
C 261.48 429.05 261.48 433.95 262.00 437.00
C 261.36 442.26 268.76 445.20 272.00 441.00
C 274.07 445.91 268.61 451.09 266.00 445.00
C 257.74 447.97 268.81 454.38 273.75 450.75 C 278.69 447.12 276.72 439.64 277.00 434.00 C 277.28 428.36 278.49 419.55 272.25 421.20 C 266.00 422.85 264.54 417.63 262.00 426.00
M 270.00 424.00 
C 273.82 424.83 272.83 439.75 268.97 438.97 C 265.11 438.19 265.80 423.09 270.00 424.00 Z"/>
</g>
<g fill="#CBF1FB" fill-opacity="1.00" stroke="None">
<path d="
M 296.00 437.00 
C 296.54 434.01 296.54 428.99 296.00 426.00
C 294.20 420.31 286.26 417.48 282.77 422.77 C 279.28 428.06 279.16 436.11 282.77 441.23 C 286.38 446.35 294.43 441.98 296.00 437.00
M 287.00 438.00 
C 285.25 435.41 285.31 428.54 287.00 426.00
C 292.95 417.08 292.38 445.98 287.00 438.00 Z"/>
</g>
<g fill="#00A8EB" fill-opacity="1.00" stroke="None">
<path d="
M 228.00 442.00 
C 230.26 438.69 229.91 426.47 228.00 423.00
C 229.11 426.04 229.28 439.05 228.00 442.00 Z"/>
</g>
<g fill="#006EB7" fill-opacity="1.00" stroke="None">
<path d="
M 270.00 424.00 
C 265.80 423.09 265.11 438.19 268.97 438.97 C 272.83 439.75 273.82 424.83 270.00 424.00 Z"/>
</g>
<g fill="#006EB7" fill-opacity="1.00" stroke="None">
<path d="
M 287.00 426.00 
C 286.25 427.78 286.25 436.22 287.00 438.00
C 292.38 445.98 292.95 417.08 287.00 426.00 Z"/>
</g>
<g fill="#006EB7" fill-opacity="1.00" stroke="None">
<path d="
M 238.00 427.00 
C 237.36 428.52 237.52 434.40 238.00 436.00
C 243.31 446.88 243.84 418.23 238.00 427.00 Z"/>
</g>
<g fill="#00A8EB" fill-opacity="1.00" stroke="None">
<path d="
M 262.00 437.00 
C 261.48 433.95 261.48 429.05 262.00 426.00
C 260.90 429.62 260.88 433.32 262.00 437.00 Z"/>
</g>
<g fill="#00A8EB" fill-opacity="1.00" stroke="None">
<path d="
M 287.00 438.00 
C 286.25 436.22 286.25 427.78 287.00 426.00
C 285.31 428.54 285.25 435.41 287.00 438.00 Z"/>
</g>
<g fill="#00A8EB" fill-opacity="1.00" stroke="None">
<path d="
M 296.00 437.00 
C 297.14 433.41 297.15 429.65 296.00 426.00
C 296.54 428.99 296.54 434.01 296.00 437.00 Z"/>
</g>
<g fill="#00A8EB" fill-opacity="1.00" stroke="None">
<path d="
M 238.00 436.00 
C 237.52 434.40 237.36 428.52 238.00 427.00
C 236.33 429.50 236.75 433.44 238.00 436.00 Z"/>
</g>
<g fill="#653594" fill-opacity="1.00" stroke="None">
<path d="
M 49.00 542.00 
L 457.00 542.00
C 344.14 445.33 161.93 445.59 49.00 542.00
M 215.00 517.00 
C 220.18 509.45 215.14 506.07 219.00 497.00 C 222.86 487.93 226.92 500.84 223.01 506.01 C 219.10 511.17 223.62 522.89 215.97 523.97 C 208.32 525.06 211.56 511.72 208.22 507.78 C 204.88 503.83 206.82 487.95 211.30 495.70 C 215.79 503.44 212.07 509.18 215.00 517.00
M 232.00 493.00 
C 234.90 493.71 233.75 499.81 230.30 498.64 C 226.85 497.47 228.66 492.19 232.00 493.00
M 261.00 493.00 
C 264.39 494.95 260.88 506.90 262.00 510.00 C 263.12 513.10 262.52 525.73 258.32 523.66 C 254.12 521.59 258.28 510.02 257.00 507.00 C 255.72 503.98 256.46 490.39 261.00 493.00
M 293.00 501.00 
C 289.04 507.07 288.61 517.02 293.00 523.00
C 278.96 526.21 289.73 507.32 282.00 504.00
C 286.06 501.61 282.26 497.09 286.26 494.26 C 290.26 491.43 289.03 503.04 293.00 501.00
M 233.00 501.00 
C 233.80 505.18 233.58 526.29 229.25 522.74 C 224.93 519.19 226.62 499.77 233.00 501.00
M 249.00 501.00 
C 258.45 504.71 252.54 528.31 242.33 523.67 C 232.12 519.03 236.93 496.26 249.00 501.00
M 271.00 513.00 
C 270.76 515.85 270.94 520.80 275.00 520.00
C 276.40 510.15 285.66 519.27 276.92 522.92 C 268.18 526.56 266.75 518.99 266.00 512.00 C 265.25 505.01 270.45 496.76 278.22 501.78 C 286.00 506.79 278.54 517.00 271.00 513.00 Z"/>
</g>
<g fill="#CBF1FB" fill-opacity="1.00" stroke="None">
<path d="
M 215.00 517.00 
C 212.07 509.18 215.79 503.44 211.30 495.70 C 206.82 487.95 204.88 503.83 208.22 507.78 C 211.56 511.72 208.32 525.06 215.97 523.97 C 223.62 522.89 219.10 511.17 223.01 506.01 C 226.92 500.84 222.86 487.93 219.00 497.00 C 215.14 506.07 220.18 509.45 215.00 517.00 Z"/>
</g>
<g fill="#CBF1FB" fill-opacity="1.00" stroke="None">
<path d="
M 232.00 493.00 
C 228.66 492.19 226.85 497.47 230.30 498.64 C 233.75 499.81 234.90 493.71 232.00 493.00 Z"/>
</g>
<g fill="#CBF1FB" fill-opacity="1.00" stroke="None">
<path d="
M 261.00 493.00 
C 256.46 490.39 255.72 503.98 257.00 507.00 C 258.28 510.02 254.12 521.59 258.32 523.66 C 262.52 525.73 263.12 513.10 262.00 510.00 C 260.88 506.90 264.39 494.95 261.00 493.00 Z"/>
</g>
<g fill="#CBF1FB" fill-opacity="1.00" stroke="None">
<path d="
M 293.00 501.00 
C 289.03 503.04 290.26 491.43 286.26 494.26 C 282.26 497.09 286.06 501.61 282.00 504.00
C 289.73 507.32 278.96 526.21 293.00 523.00
C 288.61 517.02 289.04 507.07 293.00 501.00 Z"/>
</g>
<g fill="#CBF1FB" fill-opacity="1.00" stroke="None">
<path d="
M 233.00 501.00 
C 226.62 499.77 224.93 519.19 229.25 522.74 C 233.58 526.29 233.80 505.18 233.00 501.00 Z"/>
</g>
<g fill="#CBF1FB" fill-opacity="1.00" stroke="None">
<path d="
M 249.00 501.00 
C 236.93 496.26 232.12 519.03 242.33 523.67 C 252.54 528.31 258.45 504.71 249.00 501.00
M 247.00 520.00 
C 242.01 522.01 240.33 505.35 244.26 504.26 C 248.18 503.16 249.31 517.27 247.00 520.00 Z"/>
</g>
<g fill="#CBF1FB" fill-opacity="1.00" stroke="None">
<path d="
M 271.00 513.00 
C 278.54 517.00 286.00 506.79 278.22 501.78 C 270.45 496.76 265.25 505.01 266.00 512.00 C 266.75 518.99 268.18 526.56 276.92 522.92 C 285.66 519.27 276.40 510.15 275.00 520.00
C 270.94 520.80 270.76 515.85 271.00 513.00
M 274.00 504.00 
C 276.99 504.37 276.60 510.55 272.97 509.97 C 269.35 509.39 271.63 503.71 274.00 504.00 Z"/>
</g>
<g fill="#653594" fill-opacity="1.00" stroke="None">
<path d="
M 247.00 520.00 
C 249.31 517.27 248.18 503.16 244.26 504.26 C 240.33 505.35 242.01 522.01 247.00 520.00 Z"/>
</g>
<g fill="#653594" fill-opacity="1.00" stroke="None">
<path d="
M 274.00 504.00 
C 271.63 503.71 269.35 509.39 272.97 509.97 C 276.60 510.55 276.99 504.37 274.00 504.00 Z"/>
</g>
</svg>